<svg width="0" height="0" class="hidden">
  <symbol xmlns="http://www.w3.org/2000/svg" viewBox="0 0 35 34" id="facebook">
    <path d="M17.499 34a17.007 17.007 0 10-17.5-17 17.255 17.255 0 0017.5 17"></path>
    <path d="M13.278 14.121h1.809v-1.707a4.454 4.454 0 01.583-2.635A3.252 3.252 0 0118.478 8.5a11.7 11.7 0 013.243.316l-.452 2.6a6.3 6.3 0 00-1.458-.211c-.7 0-1.333.245-1.333.928v1.985h2.886l-.2 2.544H18.48v8.835h-3.391v-8.832H13.28z" fill="#fff"></path>
  </symbol>
  <symbol xmlns="http://www.w3.org/2000/svg" viewBox="0 0 34.999 34" id="pinterest">
    <path d="M17.5 34A17.007 17.007 0 100 17a17.254 17.254 0 0017.5 17"></path>
    <path d="M17.5 8.455a8.628 8.628 0 00-8.75 8.5 8.5 8.5 0 005.238 7.784 7.273 7.273 0 01.152-1.952l1.126-4.631a3.187 3.187 0 01-.28-1.345c0-1.259.752-2.2 1.687-2.2a1.152 1.152 0 011.181 1.276 17.853 17.853 0 01-.773 3.016 1.326 1.326 0 001.386 1.638c1.658 0 2.774-2.068 2.774-4.519 0-1.862-1.292-3.257-3.64-3.257a4.086 4.086 0 00-4.308 4.069 2.408 2.408 0 00.576 1.667.407.407 0 01.127.475c-.042.155-.138.533-.178.682a.3.3 0 01-.438.213 3.255 3.255 0 01-1.791-3.247c0-2.414 2.095-5.311 6.253-5.311 3.341 0 5.539 2.35 5.539 4.87 0 3.335-1.908 5.825-4.721 5.825a2.529 2.529 0 01-2.137-1.059s-.508 1.958-.616 2.336a6.968 6.968 0 01-.881 1.82 8.975 8.975 0 002.48.349 8.5 8.5 0 100-17" fill="#fff"></path>
  </symbol>
  <symbol xmlns="http://www.w3.org/2000/svg" viewBox="0 0 35 34" id="twitter">
    <path d="M17.5 34A17.007 17.007 0 100 17a17.255 17.255 0 0017.5 17"></path>
    <path d="M26.28 12.547a7.344 7.344 0 01-2.066.55 3.511 3.511 0 001.581-1.932 7.324 7.324 0 01-2.284.847 3.639 3.639 0 00-2.625-1.1 3.546 3.546 0 00-3.6 3.493 3.385 3.385 0 00.093.8 10.309 10.309 0 01-7.412-3.651 3.413 3.413 0 00-.487 1.758 3.467 3.467 0 001.6 2.908 3.672 3.672 0 01-1.63-.436v.043a3.52 3.52 0 002.885 3.425 3.608 3.608 0 01-.948.123 3.662 3.662 0 01-.676-.062 3.583 3.583 0 003.358 2.425 7.347 7.347 0 01-4.466 1.5 7.581 7.581 0 01-.858-.048 10.413 10.413 0 005.513 1.568 10.009 10.009 0 0010.236-9.953c0-.152 0-.3-.009-.453a7.184 7.184 0 001.794-1.808" fill="#fff"></path>
  </symbol>
  <symbol xmlns="http://www.w3.org/2000/svg" viewBox="0 0 512 512" id="fly-twitter">
    <path d="M512 97.248c-19.04 8.352-39.328 13.888-60.48 16.576 21.76-12.992 38.368-33.408 46.176-58.016-20.288 12.096-42.688 20.64-66.56 25.408C411.872 60.704 384.416 48 354.464 48c-58.112 0-104.896 47.168-104.896 104.992 0 8.32.704 16.32 2.432 23.936-87.264-4.256-164.48-46.08-216.352-109.792-9.056 15.712-14.368 33.696-14.368 53.056 0 36.352 18.72 68.576 46.624 87.232-16.864-.32-33.408-5.216-47.424-12.928v1.152c0 51.008 36.384 93.376 84.096 103.136-8.544 2.336-17.856 3.456-27.52 3.456-6.72 0-13.504-.384-19.872-1.792 13.6 41.568 52.192 72.128 98.08 73.12-35.712 27.936-81.056 44.768-130.144 44.768-8.608 0-16.864-.384-25.12-1.44C46.496 446.88 101.6 464 161.024 464c193.152 0 298.752-160 298.752-298.688 0-4.64-.16-9.12-.384-13.568 20.832-14.784 38.336-33.248 52.608-54.496z"></path>
  </symbol>
</svg>